<?xml version="1.0" standalone="no"?><!DOCTYPE svg PUBLIC "-//W3C//DTD SVG 1.1//EN" "http://www.w3.org/Graphics/SVG/1.1/DTD/svg11.dtd"><svg class="icon" width="200px" height="200.00px" viewBox="0 0 1024 1024" version="1.1" xmlns="http://www.w3.org/2000/svg"><path fill="#515151" d="M744.2 530.6H276.4c-41.4 0-75-33.6-75-75V139.5c0-41.4 33.6-75 75-75h467.8c41.4 0 75 33.6 75 75v316.1c0 41.4-33.6 75-75 75zM276.4 128.5c-6 0-11 5-11 11v316.1c0 6 5 11 11 11h467.8c6 0 11-5 11-11V139.5c0-6.1-4.9-11-11-11H276.4zM626.9 440.4c-17.7 0-32-14.3-32-32v-227c0-17.7 14.3-32 32-32s32 14.3 32 32v227c0 17.7-14.3 32-32 32zM767.7 959.5H256.2c-51.1 0-99.3-20-135.6-56.4-36.4-36.4-56.4-84.5-56.4-135.6V256c0-51.1 20-99.3 56.4-135.6S205.1 64 256.2 64h511.5c51.1 0 99.3 20 135.6 56.4 36.4 36.4 56.4 84.5 56.4 135.6v511.5c0 51.1-20 99.3-56.4 135.6-36.3 36.4-84.5 56.4-135.6 56.4zM256.2 128c-70.6 0-128 57.4-128 128v511.5c0 70.6 57.4 128 128 128h511.5c70.6 0 128-57.4 128-128V256c0-70.6-57.4-128-128-128H256.2z" /></svg>