<?xml version="1.0" standalone="no"?><!DOCTYPE svg PUBLIC "-//W3C//DTD SVG 1.1//EN" "http://www.w3.org/Graphics/SVG/1.1/DTD/svg11.dtd"><svg class="icon" width="200px" height="200.00px" viewBox="0 0 1024 1024" version="1.1" xmlns="http://www.w3.org/2000/svg"><path fill="#515151" d="M491.7 894.6c0-17.5-14.2-31.7-31.7-31.7l-251 0c-23.3 0-42.3-19-42.3-42.3L166.70000001 203.7c0-23.3 19-42.3 42.29999999-42.29999999L790.3 161.4c23.3 0 42.3 19 42.3 42.3l0 270.7c0 17.5 14.2 31.7 31.7 31.7S896 492 896 474.4L896.00000001 203.7C896 145.4 848.6 98 790.3 97.99999999L209 98c-58.3 0-105.7 47.4-105.7 105.7l-1e-8 616.9c0 58.3 47.4 105.7 105.70000001 105.70000001L460 926.3c17.5 0 31.7-14.2 31.7-31.7zM335.1 253.1c93.2 98.5 237.3 197.9 228 373.7-0.7 12.4-10.4 22.1-22.9 22.09999999l-61 1e-8c-19.2-0.1-29.9 22.2-17.8 37.1l184.3 227.89999999c9.1 11.3 26.4 11.3 35.5-0.09999999L885.2 687c11.99999999-14.9 1.4-38.1-17.7-38.2l-61.8 0c-11.6 0-20-7.90000001-22.6-19.3-69-302.5-423.6-379-448-376.4z" /></svg>