<?xml version="1.0" standalone="no"?><!DOCTYPE svg PUBLIC "-//W3C//DTD SVG 1.1//EN" "http://www.w3.org/Graphics/SVG/1.1/DTD/svg11.dtd"><svg class="icon" width="200px" height="200.00px" viewBox="0 0 1024 1024" version="1.1" xmlns="http://www.w3.org/2000/svg"><path fill="#515151" d="M165.812409 338.714292c-18.784848 0-34.002381-15.217533-34.002381-34.002381V160.077612c0-18.784848 15.217533-34.002381 34.002381-34.002382h144.589143c18.784848 0 34.002381 15.217533 34.002382 34.002382s-15.217533 34.002381-34.002382 34.002381H199.859946v110.586762c0 18.784848-15.262689 34.047537-34.047537 34.047537zM310.446708 897.92477H165.812409c-18.784848 0-34.002381-15.217533-34.002381-34.002382V719.333245c0-18.784848 15.217533-34.002381 34.002381-34.002381s34.002381 15.217533 34.002381 34.002381v110.586762h110.586762c18.784848 0 34.002381 15.217533 34.002382 34.002381s-15.172377 34.002381-33.957226 34.002382zM869.657186 897.92477h-144.589143c-18.784848 0-34.002381-15.217533-34.002382-34.002382s15.217533-34.002381 34.002382-34.002381h110.586761V719.333245c0-18.784848 15.217533-34.002381 34.002382-34.002381 18.784848 0 34.002381 15.217533 34.002381 34.002381v144.589143c0 18.784848-15.217533 34.002381-34.002381 34.002382zM869.657186 338.714292c-18.784848 0-34.002381-15.217533-34.002382-34.002381v-110.631918h-110.586761c-18.784848 0-34.002381-15.217533-34.002382-34.002381s15.217533-34.002381 34.002382-34.002382h144.589143c18.784848 0 34.002381 15.217533 34.002381 34.002382v144.589143c0 18.830004-15.217533 34.047537-34.002381 34.047537zM509.945407 710.798783c-172.721259 0-307.917979-160.619482-313.562464-167.483177-10.431009-12.598492-10.431009-30.841469 0-43.394805 5.689641-6.818539 140.841205-167.483177 313.562464-167.483177s307.917979 160.619482 313.562464 167.483177c10.431009 12.598492 10.431009 30.841469 0 43.394805-5.644486 6.818539-140.841205 167.483177-313.562464 167.483177zM269.038762 521.55047c40.008114 39.962958 134.474225 121.198395 240.906645 121.198394 106.883979 0 200.988843-81.099969 240.906646-121.108083-40.05327-39.962958-134.474225-121.198395-240.906646-121.198394-106.838823 0-200.988843 81.145125-240.906645 121.108083zM509.945407 590.097103c-37.75032 0-68.501477-30.706002-68.501477-68.501477s30.706002-68.501477 68.501477-68.501478 68.501477 30.706002 68.501478 68.501478-30.706002 68.501477-68.501478 68.501477z m0-103.000573c-19.010628 0-34.499096 15.488468-34.499096 34.499096s15.488468 34.499096 34.499096 34.499096c19.010628 0 34.499096-15.488468 34.499096-34.499096s-15.488468-34.499096-34.499096-34.499096z" /></svg>